<?xml version="1.0" encoding="UTF-8" standalone="no"?>
<!DOCTYPE svg PUBLIC "-//W3C//DTD SVG 1.1//EN" "http://www.w3.org/Graphics/SVG/1.1/DTD/svg11.dtd">
<svg width="100%" height="100%" viewBox="0 0 1030 768" version="1.1" xmlns="http://www.w3.org/2000/svg" xmlns:xlink="http://www.w3.org/1999/xlink" xml:space="preserve" xmlns:serif="http://www.serif.com/" style="fill-rule:evenodd;clip-rule:evenodd;stroke-linejoin:round;stroke-miterlimit:2;">
    <g transform="matrix(1,0,0,1,-664.079,-1079.15)">
        <g transform="matrix(1.93691,0,0,1.93691,-12552.3,-3276.1)">
            <g transform="matrix(138.102,0,0,138.102,6814.34,2601.51)">
                <path d="M0.601,-0L0.601,-0.137L0.31,-0.137L0.31,-0.29L0.583,-0.29L0.583,-0.422L0.31,-0.422L0.31,-0.543L0.592,-0.543L0.592,-0.68L0.066,-0.68L0.066,-0L0.601,-0Z" style="fill:rgb(14,109,104);fill-rule:nonzero;"/>
            </g>
            <g transform="matrix(138.102,0,0,138.102,6902.86,2601.51)">
                <path d="M0.775,-0L0.775,-0.68L0.572,-0.68L0.572,-0.187L0.424,-0.68L0.066,-0.68L0.066,-0L0.269,-0L0.269,-0.496L0.418,-0L0.775,-0Z" style="fill:rgb(14,109,104);fill-rule:nonzero;"/>
            </g>
            <g transform="matrix(138.102,0,0,138.102,7019,2601.51)">
                <path d="M0.601,-0L0.601,-0.137L0.31,-0.137L0.31,-0.29L0.583,-0.29L0.583,-0.422L0.31,-0.422L0.31,-0.543L0.592,-0.543L0.592,-0.68L0.066,-0.68L0.066,-0L0.601,-0Z" style="fill:rgb(14,109,104);fill-rule:nonzero;"/>
            </g>
            <g transform="matrix(138.102,0,0,138.102,7107.53,2601.51)">
                <path d="M0.712,-0L0.539,-0.31L0.557,-0.314C0.582,-0.319 0.688,-0.359 0.688,-0.482C0.688,-0.605 0.596,-0.68 0.39,-0.68L0.066,-0.68L0.066,-0L0.31,-0L0.31,-0.275L0.437,-0L0.712,-0ZM0.441,-0.478C0.441,-0.429 0.42,-0.396 0.372,-0.396L0.31,-0.396L0.31,-0.55L0.372,-0.55C0.409,-0.55 0.441,-0.525 0.441,-0.478Z" style="fill:rgb(14,109,104);fill-rule:nonzero;"/>
            </g>
            <g transform="matrix(138.102,0,0,138.102,7209.59,2601.51)">
                <path d="M0.675,-0.033L0.675,-0.364L0.437,-0.364L0.437,-0.141C0.431,-0.135 0.388,-0.129 0.38,-0.129C0.317,-0.129 0.289,-0.187 0.289,-0.355C0.289,-0.487 0.331,-0.546 0.475,-0.546C0.543,-0.546 0.619,-0.52 0.639,-0.508L0.639,-0.654C0.62,-0.665 0.518,-0.692 0.397,-0.692C0.194,-0.692 0.038,-0.593 0.038,-0.355C0.038,-0.086 0.139,0.012 0.4,0.012C0.521,0.012 0.637,-0.019 0.675,-0.033Z" style="fill:rgb(14,109,104);fill-rule:nonzero;"/>
            </g>
        </g>
        <g transform="matrix(1.31178,0,0,1.09449,-7252.43,-582.728)">
            <path d="M6819.02,2185.51L6819.55,1973.9L6771.69,1973.9L6771.16,2171.28C6771.16,2183.96 6766.5,2192.49 6756.15,2192.49C6752.79,2192.49 6745.03,2189.91 6742.7,2189.39L6742.7,2217.07C6747.1,2218.1 6764.17,2219.66 6770.64,2219.66C6800.91,2219.66 6819.02,2209.83 6819.02,2185.51Z" style="fill:rgb(14,109,104);"/>
        </g>
    </g>
    <g transform="matrix(0.869812,0,0,0.869812,514.639,219.265)">
        <g transform="matrix(1,0,0,1,-591.667,-252.083)">
            <clipPath id="_clip1">
                <rect x="0" y="0" width="1183.33" height="504.167"/>
            </clipPath>
            <g clip-path="url(#_clip1)">
                <g transform="matrix(4.16667,0,0,4.16667,0,0)">
                    <path d="M1.12,108.35C2.434,108.21 4.73,107.734 6.493,107.231C8.844,106.587 9.879,105.327 9.879,103.984C9.879,102.473 8.76,101.521 6.941,101.521C3.554,101.521 1.12,105.159 1.12,108.015L1.12,108.35ZM1.203,109.218C1.596,111.904 3.387,113.723 6.213,113.723C7.976,113.723 9.655,112.967 10.718,111.625L10.802,111.625L10.802,113.22C9.683,114.171 7.948,114.843 6.213,114.843C1.987,114.843 0,111.82 0,108.434C0,104.403 2.911,100.43 7.164,100.43C9.739,100.43 11.139,101.941 11.139,103.9C11.139,105.831 9.907,107.427 6.353,108.294C4.953,108.63 2.799,109.022 1.203,109.218Z" style="fill:rgb(101,104,106);fill-rule:nonzero;"/>
                    <path d="M15.336,100.961L16.539,100.961L16.539,103.648C18.05,101.605 19.897,100.682 21.66,100.682C24.346,100.682 26.054,102.165 26.054,105.187L26.054,114.367L24.851,114.367L24.851,105.552C24.851,102.949 23.758,101.829 21.52,101.829C19.813,101.829 18.33,102.808 17.35,104.124C16.762,104.936 16.539,105.496 16.539,106.811L16.539,114.367L15.336,114.367L15.336,100.961Z" style="fill:rgb(101,104,106);fill-rule:nonzero;"/>
                    <path d="M31.146,108.35C32.46,108.21 34.756,107.734 36.518,107.231C38.869,106.587 39.904,105.327 39.904,103.984C39.904,102.473 38.785,101.521 36.966,101.521C33.58,101.521 31.146,105.159 31.146,108.015L31.146,108.35ZM31.229,109.218C31.622,111.904 33.413,113.723 36.239,113.723C38.001,113.723 39.68,112.967 40.743,111.625L40.827,111.625L40.827,113.22C39.708,114.171 37.973,114.843 36.239,114.843C32.013,114.843 30.025,111.82 30.025,108.434C30.025,104.403 32.937,100.43 37.189,100.43C39.764,100.43 41.163,101.941 41.163,103.9C41.163,105.831 39.932,107.427 36.379,108.294C34.979,108.63 32.825,109.022 31.229,109.218Z" style="fill:rgb(101,104,106);fill-rule:nonzero;"/>
                    <path d="M52.16,102.08C49.894,102.08 48.271,102.78 47.206,103.928C46.759,104.431 46.564,105.047 46.564,106.727L46.564,114.367L45.36,114.367L45.36,100.961L46.564,100.961L46.564,103.396C47.767,101.885 49.166,101.129 50.873,100.905C51.265,100.849 51.713,100.821 52.16,100.821L52.16,102.08Z" style="fill:rgb(101,104,106);fill-rule:nonzero;"/>
                    <path d="M58.288,108.462C58.485,108.546 58.821,108.63 59.016,108.63C59.353,108.63 59.688,108.602 60.332,108.49C62.263,108.154 63.746,107.006 63.746,105.243C63.746,103.452 62.179,101.857 59.688,101.857C57.505,101.857 55.881,103.256 55.881,105.299C55.881,106.643 56.806,107.818 58.288,108.462ZM58.121,113.388C56.246,114.171 55.099,115.207 55.099,116.83C55.099,118.425 56.637,119.937 59.269,119.937C62.43,119.937 64.614,118.146 64.614,116.214C64.614,115.235 63.998,114.395 62.43,114.06C61.507,113.864 59.912,113.695 58.121,113.388ZM62.851,101.577C63.718,100.43 64.726,99.786 66.125,99.786L66.125,101.017C65.146,101.017 64.333,101.354 63.579,102.165C64.446,103.005 64.949,104.124 64.949,105.243C64.949,107.203 63.523,108.687 61.311,109.246C59.856,109.609 58.485,109.722 57.562,109.945C56.442,110.225 55.855,110.532 55.855,111.092C55.855,111.653 56.637,111.988 57.785,112.241C59.044,112.52 61.703,112.8 62.879,113.052C64.949,113.499 65.817,114.507 65.817,116.214C65.817,118.9 62.879,121 59.269,121C55.909,121 53.979,119.069 53.979,116.942C53.979,115.43 54.678,114.115 56.834,113.108C55.099,112.548 54.567,111.792 54.567,111.092C54.567,110.141 55.742,109.497 57.449,109.05C55.827,108.294 54.678,107.006 54.678,105.327C54.678,102.78 56.806,100.71 59.688,100.71C60.919,100.71 62.011,101.045 62.851,101.577Z" style="fill:rgb(101,104,106);fill-rule:nonzero;"/>
                    <path d="M73.4,114.06L67.943,100.961L69.314,100.961L74.016,112.604L78.744,100.961L80.116,100.961L74.268,114.73C72.953,117.837 71.973,119.6 70.937,121L69.342,121L69.342,120.916C70.77,119.153 72.309,116.522 73.4,114.06Z" style="fill:rgb(101,104,106);fill-rule:nonzero;"/>
                    <path d="M99.48,113.472C98.5,114.199 96.765,114.843 94.974,114.843C90.832,114.843 88.229,112.185 88.229,107.874C88.229,103.704 90.832,100.486 95.338,100.486C97.017,100.486 98.5,100.905 99.619,101.661L99.2,102.921C98.165,102.137 96.961,101.661 95.338,101.661C91.588,101.661 89.488,104.18 89.488,107.874C89.488,111.12 91.308,113.667 94.974,113.667C96.933,113.667 98.332,113.052 99.675,111.708L99.76,111.708L99.48,113.472Z" style="fill:rgb(101,104,106);fill-rule:nonzero;"/>
                    <path d="M113.891,107.65C113.891,103.872 111.905,101.605 108.855,101.605C105.664,101.605 103.816,104.152 103.816,107.65C103.816,111.148 105.664,113.695 108.855,113.695C111.905,113.695 113.891,111.429 113.891,107.65ZM102.557,107.65C102.557,103.117 105.188,100.458 108.855,100.458C112.24,100.458 115.151,102.78 115.151,107.65C115.151,112.52 112.24,114.843 108.855,114.843C105.188,114.843 102.557,112.185 102.557,107.65Z" style="fill:rgb(101,104,106);fill-rule:nonzero;"/>
                    <path d="M119.348,100.961L120.551,100.961L120.551,103.648C122.062,101.605 123.909,100.682 125.672,100.682C128.358,100.682 130.065,102.165 130.065,105.187L130.065,114.367L128.863,114.367L128.863,105.552C128.863,102.949 127.77,101.829 125.532,101.829C123.825,101.829 122.342,102.808 121.362,104.124C120.774,104.936 120.551,105.496 120.551,106.811L120.551,114.367L119.348,114.367L119.348,100.961Z" style="fill:rgb(101,104,106);fill-rule:nonzero;"/>
                    <path d="M134.037,111.988C135.046,113.079 136.5,113.723 138.32,113.723C140.642,113.723 141.818,112.716 141.818,111.065C141.818,110.253 141.398,109.441 140.475,108.938C139.188,108.238 137.676,107.902 136.444,107.315C134.737,106.503 134.206,105.607 134.206,104.096C134.206,102.052 135.774,100.486 138.32,100.486C139.999,100.486 141.398,101.017 142.602,101.857L142.098,103.173C141.035,102.052 139.495,101.605 138.292,101.605C136.305,101.605 135.409,102.724 135.409,103.956C135.409,105.103 135.913,105.747 137.004,106.252C137.984,106.699 139.579,107.147 140.642,107.678C142.461,108.546 143.021,109.553 143.021,111.065C143.021,113.36 141.258,114.843 138.207,114.843C136.305,114.843 134.906,114.283 133.899,113.499L134.037,111.988Z" style="fill:rgb(101,104,106);fill-rule:nonzero;"/>
                    <path d="M148.198,100.961L148.198,109.945C148.198,112.492 149.458,113.472 151.584,113.472C153.291,113.472 154.943,112.296 156.034,110.701C156.342,110.253 156.482,109.778 156.482,109.134L156.482,100.961L157.685,100.961L157.685,114.255L156.482,114.619L156.482,111.68C155.194,113.472 153.375,114.619 151.417,114.619C148.477,114.619 146.995,113.052 146.995,110.001L146.995,100.961L148.198,100.961Z" style="fill:rgb(101,104,106);fill-rule:nonzero;"/>
                    <path d="M164.204,114.367L163,114.367L163,92.818L164.204,92.539L164.204,114.367Z" style="fill:rgb(101,104,106);fill-rule:nonzero;"/>
                    <path d="M170.107,100.961L170.107,96.484L171.283,96.176L171.283,100.961L175.648,100.961L175.648,102.052L171.283,102.052L171.283,109.806C171.283,112.324 171.59,113.023 173.661,114.143L173.661,114.311L172.065,114.507C170.667,113.835 170.107,112.828 170.107,109.806L170.107,102.052L167.42,102.052L167.42,100.961L170.107,100.961Z" style="fill:rgb(101,104,106);fill-rule:nonzero;"/>
                    <path d="M179.93,100.821L179.93,114.367L178.726,114.367L178.726,101.073L179.93,100.821Z" style="fill:rgb(101,104,106);fill-rule:nonzero;"/>
                    <path d="M185.246,100.961L186.449,100.961L186.449,103.648C187.96,101.605 189.807,100.682 191.57,100.682C194.256,100.682 195.964,102.165 195.964,105.187L195.964,114.367L194.761,114.367L194.761,105.552C194.761,102.949 193.669,101.829 191.43,101.829C189.723,101.829 188.24,102.808 187.26,104.124C186.672,104.936 186.449,105.496 186.449,106.811L186.449,114.367L185.246,114.367L185.246,100.961Z" style="fill:rgb(101,104,106);fill-rule:nonzero;"/>
                    <path d="M204.104,108.462C204.301,108.546 204.637,108.63 204.832,108.63C205.169,108.63 205.504,108.602 206.148,108.49C208.079,108.154 209.562,107.006 209.562,105.243C209.562,103.452 207.995,101.857 205.504,101.857C203.322,101.857 201.698,103.256 201.698,105.299C201.698,106.643 202.622,107.818 204.104,108.462ZM203.937,113.388C202.062,114.171 200.915,115.207 200.915,116.83C200.915,118.425 202.454,119.937 205.085,119.937C208.246,119.937 210.43,118.146 210.43,116.214C210.43,115.235 209.814,114.395 208.246,114.06C207.323,113.864 205.728,113.695 203.937,113.388ZM208.667,101.577C209.534,100.43 210.542,99.786 211.941,99.786L211.941,101.017C210.962,101.017 210.15,101.354 209.395,102.165C210.262,103.005 210.765,104.124 210.765,105.243C210.765,107.203 209.339,108.687 207.127,109.246C205.672,109.609 204.301,109.722 203.378,109.945C202.258,110.225 201.671,110.532 201.671,111.092C201.671,111.653 202.454,111.988 203.601,112.241C204.86,112.52 207.52,112.8 208.695,113.052C210.765,113.499 211.633,114.507 211.633,116.214C211.633,118.9 208.695,121 205.085,121C201.726,121 199.796,119.069 199.796,116.942C199.796,115.43 200.494,114.115 202.65,113.108C200.915,112.548 200.383,111.792 200.383,111.092C200.383,110.141 201.559,109.497 203.266,109.05C201.643,108.294 200.494,107.006 200.494,105.327C200.494,102.78 202.622,100.71 205.504,100.71C206.736,100.71 207.827,101.045 208.667,101.577Z" style="fill:rgb(101,104,106);fill-rule:nonzero;"/>
                    <path d="M232.285,113.472C231.305,114.199 229.57,114.843 227.779,114.843C223.637,114.843 221.034,112.185 221.034,107.874C221.034,103.704 223.637,100.486 228.144,100.486C229.823,100.486 231.305,100.905 232.424,101.661L232.005,102.921C230.97,102.137 229.766,101.661 228.144,101.661C224.393,101.661 222.294,104.18 222.294,107.874C222.294,111.12 224.113,113.667 227.779,113.667C229.738,113.667 231.137,113.052 232.481,111.708L232.565,111.708L232.285,113.472Z" style="fill:rgb(101,104,106);fill-rule:nonzero;"/>
                    <path d="M237.686,100.821L237.686,114.367L236.482,114.367L236.482,101.073L237.686,100.821ZM238.105,95.785C238.105,96.4 237.686,96.792 237.098,96.792C236.454,96.792 236.062,96.4 236.062,95.785C236.062,95.169 236.454,94.749 237.07,94.749C237.686,94.749 238.105,95.169 238.105,95.785Z" style="fill:rgb(101,104,106);fill-rule:nonzero;"/>
                    <path d="M249.8,102.08C247.534,102.08 245.911,102.78 244.847,103.928C244.399,104.431 244.204,105.047 244.204,106.727L244.204,114.367L243,114.367L243,100.961L244.204,100.961L244.204,103.396C245.407,101.885 246.806,101.129 248.513,100.905C248.905,100.849 249.353,100.821 249.8,100.821L249.8,102.08Z" style="fill:rgb(101,104,106);fill-rule:nonzero;"/>
                    <path d="M262.731,113.472C261.75,114.199 260.015,114.843 258.224,114.843C254.082,114.843 251.479,112.185 251.479,107.874C251.479,103.704 254.082,100.486 258.588,100.486C260.268,100.486 261.75,100.905 262.87,101.661L262.45,102.921C261.415,102.137 260.212,101.661 258.588,101.661C254.838,101.661 252.739,104.18 252.739,107.874C252.739,111.12 254.558,113.667 258.224,113.667C260.183,113.667 261.583,113.052 262.926,111.708L263.01,111.708L262.731,113.472Z" style="fill:rgb(101,104,106);fill-rule:nonzero;"/>
                    <path d="M268.131,114.367L266.928,114.367L266.928,92.818L268.131,92.539L268.131,114.367Z" style="fill:rgb(101,104,106);fill-rule:nonzero;"/>
                    <path d="M273.447,108.35C274.761,108.21 277.056,107.734 278.82,107.231C281.17,106.587 282.205,105.327 282.205,103.984C282.205,102.473 281.086,101.521 279.268,101.521C275.881,101.521 273.447,105.159 273.447,108.015L273.447,108.35ZM273.53,109.218C273.922,111.904 275.714,113.723 278.54,113.723C280.302,113.723 281.981,112.967 283.044,111.625L283.128,111.625L283.128,113.22C282.009,114.171 280.274,114.843 278.54,114.843C274.314,114.843 272.326,111.82 272.326,108.434C272.326,104.403 275.238,100.43 279.491,100.43C282.065,100.43 283.465,101.941 283.465,103.9C283.465,105.831 282.233,107.427 278.68,108.294C277.28,108.63 275.126,109.022 273.53,109.218Z" style="fill:rgb(101,104,106);fill-rule:nonzero;"/>
                    <path d="M163.077,7.348C163.077,10.997 160.117,13.957 156.465,13.957C152.817,13.957 149.854,10.997 149.854,7.348C149.854,3.696 152.817,0.735 156.465,0.735C160.117,0.735 163.077,3.696 163.077,7.348Z" style="fill:rgb(239,66,35);fill-rule:nonzero;"/>
                    <path d="M195.135,83.049C193.76,82.255 193.288,80.496 194.082,79.121C194.879,77.746 196.635,77.272 198.013,78.067C199.387,78.861 199.859,80.62 199.064,81.994C198.271,83.368 196.512,83.842 195.135,83.049Z" style="fill:rgb(239,66,35);fill-rule:nonzero;"/>
                    <path d="M203.584,61.079C201.554,61.079 199.902,59.429 199.902,57.396C199.905,55.366 201.549,53.723 203.581,53.723C205.611,53.723 207.255,55.366 207.257,57.399C207.255,59.429 205.614,61.079 203.584,61.079Z" style="fill:rgb(239,66,35);fill-rule:nonzero;"/>
                    <path d="M200.354,37.358C198.157,38.626 195.352,37.871 194.084,35.675C192.821,33.484 193.567,30.681 195.762,29.413C197.959,28.147 200.761,28.899 202.029,31.092C203.295,33.284 202.546,36.092 200.354,37.358Z" style="fill:rgb(239,66,35);fill-rule:nonzero;"/>
                    <path d="M186.042,17.672C184.453,20.426 180.936,21.364 178.186,19.776C175.442,18.188 174.493,14.678 176.081,11.926C177.672,9.178 181.183,8.236 183.935,9.823C186.677,11.408 187.63,14.927 186.042,17.672Z" style="fill:rgb(239,66,35);fill-rule:nonzero;"/>
                    <path d="M112.434,55.566C114.217,55.23 116.153,54.698 117.6,54.213C120.165,53.292 121.272,51.993 121.272,50.443C121.272,48.752 120.211,47.741 118.373,47.741C115.476,47.741 112.773,51.12 112.434,55.566ZM112.627,58.66C113.254,61.172 115.237,63.006 118.906,63.006C122.093,63.006 124.995,61.558 127.024,59.24L127.168,59.24L126.639,65.906C124.556,67.644 121.516,68.564 118.425,68.564C110.454,68.564 106.588,63.104 106.588,57.11C106.588,50.011 112.189,42.959 120.066,42.959C124.995,42.959 127.845,45.755 127.845,49.431C127.845,53.101 125.479,55.613 120.116,57.065C118.036,57.641 115.041,58.319 112.627,58.66Z" style="fill:rgb(239,66,35);fill-rule:nonzero;"/>
                    <path d="M151.707,66.584C150.064,67.644 147.215,68.564 144.172,68.564C136.632,68.564 131.849,63.828 131.849,56.147C131.849,48.607 136.682,43.053 145.329,43.053C147.986,43.053 150.4,43.633 152.141,44.696L151.417,51.12C149.871,49.769 147.986,48.947 145.571,48.947C141.271,48.947 138.663,51.702 138.663,56.147C138.663,59.914 141.03,62.667 145.135,62.667C148.184,62.667 150.4,61.653 152.429,59.43L152.575,59.43L151.707,66.584Z" style="fill:rgb(239,66,35);fill-rule:nonzero;"/>
                    <path d="M176.007,66.584C174.364,67.644 171.514,68.564 168.47,68.564C160.934,68.564 156.15,63.828 156.15,56.147C156.15,48.607 160.982,43.053 169.632,43.053C172.285,43.053 174.702,43.633 176.441,44.696L175.715,51.12C174.172,49.769 172.285,48.947 169.873,48.947C165.572,48.947 162.961,51.702 162.961,56.147C162.961,59.914 165.331,62.667 169.438,62.667C172.481,62.667 174.702,61.653 176.732,59.43L176.874,59.43L176.007,66.584Z" style="fill:rgb(239,66,35);fill-rule:nonzero;"/>
                    <path d="M180.349,95.785C180.349,96.4 179.93,96.792 179.342,96.792C178.698,96.792 178.306,96.4 178.306,95.785C178.306,95.169 178.698,94.749 179.314,94.749C179.93,94.749 180.349,95.169 180.349,95.785Z" style="fill:rgb(239,66,35);fill-rule:nonzero;"/>
                </g>
            </g>
        </g>
    </g>
    <g transform="matrix(0.583126,0,0,0.583126,515.149,764.16)">
        <text x="-643.917px" y="0px" style="font-family:'AeonisLTPro-Regular', 'Aeonis LT Pro', sans-serif;font-size:83.333px;">Erkennen. Verbessern. Proï¬tieren.</text>
    </g>
</svg>
